<svg xmlns="http://www.w3.org/2000/svg" width="234" height="56" viewBox="0 0 234 56" fill="none">
<path d="M69.1599 16.8091C69.1599 19.8321 67.5915 22.5968 64.9664 24.1998L53.5636 31.1655L39.4751 22.5592L68.7252 4.69577C68.9123 4.58281 69.1599 4.71191 69.1599 4.92706V16.8091ZM51.8686 42.4558C51.8686 42.6495 51.7695 42.8216 51.6044 42.9238L38.2039 51.1105C38.9909 46.4201 41.781 42.2729 46.002 39.6964L51.8686 36.1141V42.4558ZM36.3823 45.6186C36.3438 45.7101 36.2172 45.7101 36.1732 45.6186C34.5442 42.0793 31.8586 39.0295 28.353 36.8886L22.1893 33.1234L36.2777 24.5171L50.3662 33.1234L44.2025 36.8886C40.6914 39.0295 38.0113 42.0793 36.3823 45.6186ZM20.951 42.9292C20.7859 42.827 20.6869 42.6495 20.6869 42.4612V36.1195L26.5534 39.7018C30.7744 42.2783 33.5646 46.4255 34.3516 51.1159L20.951 42.9292ZM7.58905 24.1998C4.96397 22.5968 3.39553 19.8321 3.39553 16.8091V4.92706C3.39553 4.71191 3.64318 4.57743 3.83029 4.69577L33.0748 22.5646L18.9864 31.1708L7.58354 24.2051L7.58905 24.1998ZM71.5374 0.24202C70.91 -0.0968522 70.1395 -0.0807154 69.5286 0.295809L36.2832 20.6066L3.02681 0.295809C2.42145 -0.0807154 1.65099 -0.0968522 1.01811 0.24202C0.390734 0.586271 0 1.23174 0 1.93638V16.8091C0 20.9885 2.1628 24.8022 5.78947 27.0129L17.2914 34.0378V43.5262C17.2914 44.1986 17.6381 44.8118 18.2214 45.1668L35.2321 55.5589C35.5513 55.7525 35.9145 55.8493 36.2832 55.8493C36.652 55.8493 37.0152 55.7525 37.3344 55.5589L54.3395 45.1668C54.9229 44.8118 55.2696 44.1986 55.2696 43.5262V34.0378L66.7715 27.0129C70.3927 24.7968 72.561 20.9832 72.561 16.8091V1.93638C72.561 1.23174 72.1702 0.586271 71.5428 0.24202" fill="#FFC72C"/>
<path d="M217.628 34.9092H204.855C204.348 34.9092 203.969 34.4628 204.057 33.9733L207.513 15.2977C207.639 14.6038 207.095 13.9637 206.374 13.9637H200.623C199.951 13.9637 199.373 14.437 199.252 15.0825L194.542 40.5571C194.415 41.251 194.96 41.8911 195.681 41.8911H216.56C217.232 41.8911 217.809 41.4177 217.931 40.7723L218.767 36.2432C218.894 35.5493 218.349 34.9092 217.628 34.9092Z" fill="#FFC72C"/>
<path d="M227.903 41.8911H222.152C221.431 41.8911 220.88 41.251 221.012 40.5571L225.723 15.0825C225.844 14.437 226.422 13.9637 227.094 13.9637H232.844C233.565 13.9637 234.116 14.6038 233.984 15.2977L229.273 40.7723C229.152 41.4177 228.579 41.8911 227.903 41.8911Z" fill="#FFC72C"/>
<path d="M184.074 32.7577L183.931 33.5161C183.783 34.3229 183.062 34.9092 182.22 34.9092H171.4C171.257 34.9092 171.147 34.7801 171.169 34.6403L171.73 31.6012C171.752 31.4936 171.846 31.4129 171.956 31.4129H182.924C183.651 31.4129 184.195 32.053 184.063 32.7523M188.24 13.9583H167.851C167.179 13.9583 166.601 14.4317 166.48 15.0771L165.523 20.2732C165.457 20.6228 165.732 20.9402 166.095 20.9402H184.867C185.593 20.9402 186.138 21.5802 186.006 22.2741L185.863 23.0326C185.709 23.8394 184.993 24.4257 184.151 24.4257H165.236C164.956 24.4257 164.714 24.6193 164.664 24.8937L161.769 40.5463C161.643 41.2402 162.188 41.8803 162.909 41.8803H183.673C187.712 41.8803 191.174 39.051 191.889 35.1674L192.604 31.2731C192.924 29.5357 191.559 27.9381 189.754 27.9381H189.688C191.372 27.9381 192.814 26.7602 193.111 25.1411L193.942 20.6282C194.58 17.1534 191.85 13.9583 188.235 13.9583" fill="#FFC72C"/>
<path d="M156.013 41.8911H150.262C149.541 41.8911 148.991 41.251 149.123 40.5571L153.834 15.0825C153.955 14.437 154.533 13.9637 155.204 13.9637H160.955C161.676 13.9637 162.226 14.6038 162.094 15.2977L157.383 40.7723C157.262 41.4177 156.69 41.8911 156.013 41.8911Z" fill="#FFC72C"/>
<path d="M148.325 13.9637H142.574C141.902 13.9637 141.325 14.437 141.204 15.0825L139.558 23.9685C139.509 24.2374 139.266 24.4365 138.986 24.4365H129.063C128.92 24.4365 128.81 24.3074 128.838 24.1675L130.478 15.2977C130.604 14.6038 130.059 13.9637 129.338 13.9637H123.588C122.916 13.9637 122.338 14.437 122.217 15.0825L117.506 40.5571C117.38 41.251 117.925 41.8911 118.646 41.8911H124.397C125.068 41.8911 125.646 41.4177 125.767 40.7723L127.462 31.6066C127.484 31.499 127.577 31.4183 127.687 31.4183H137.759C137.973 31.4183 138.138 31.6119 138.1 31.8163L136.487 40.5517C136.361 41.2456 136.906 41.8857 137.626 41.8857H143.377C144.049 41.8857 144.627 41.4124 144.748 40.7669L149.459 15.2923C149.585 14.5984 149.04 13.9583 148.319 13.9583" fill="#FFC72C"/>
<path d="M88.1408 20.4883C88.8397 16.7123 92.2022 13.9637 96.1261 13.9637H116.56C117.429 13.9637 118.084 14.7329 117.93 15.5666L117.143 19.8267C117.022 20.4722 116.45 20.9455 115.773 20.9455H88.5315C88.2839 20.9455 88.0968 20.725 88.1408 20.4883Z" fill="#A7A8AA"/>
<path d="M114.628 24.4365H102.053C101.382 24.4365 100.804 24.9098 100.683 25.5553L99.7252 30.7513C99.6592 31.1009 99.9344 31.4183 100.298 31.4183H106.423C106.566 31.4183 106.676 31.5474 106.654 31.6873L106.142 34.4466C106.093 34.7156 105.85 34.9146 105.57 34.9146H94.4696C94.1064 34.9146 93.8367 34.5972 93.8972 34.2476L95.6583 24.7108C95.6858 24.5709 95.5757 24.4418 95.4272 24.4418H87.8876C87.607 24.4418 87.3648 24.6355 87.3153 24.9098L85.4112 35.2266C84.7673 38.7014 87.5024 41.9018 91.1181 41.9018H111.607C112.449 41.9018 113.17 41.3155 113.318 40.5033L115.987 26.0501C116.142 25.2164 115.487 24.4472 114.617 24.4472" fill="#FFC72C"/>
<path d="M148.875 55.8548V48.8729H153.041V49.7389H149.756V51.9335H152.447V52.7942H149.756V55.8548H148.875Z" fill="#A7A8AA"/>
<path d="M155.518 55.8548V48.8729H160.036V49.6959H156.404V51.8797H159.436V52.6973H156.404V55.0372H160.036V55.8548H155.518Z" fill="#A7A8AA"/>
<path d="M162.81 55.8548V48.8729H167.322V49.6959H163.696V51.8797H166.728V52.6973H163.696V55.0372H167.322V55.8548H162.81Z" fill="#A7A8AA"/>
<path d="M170.002 55.8548V48.8729H170.883V55.0372H174.196V55.8548H170.002Z" fill="#A7A8AA"/>
<path d="M182.038 55.8548V49.6959H179.606V48.8729H185.357V49.6959H182.924V55.8548H182.038Z" fill="#A7A8AA"/>
<path d="M187.739 55.8548V48.8729H188.62V51.955H192.379V48.8729H193.265V55.8548H192.379V52.7726H188.62V55.8548H187.739Z" fill="#A7A8AA"/>
<path d="M196.237 55.8548V48.8729H200.755V49.6959H197.123V51.8797H200.155V52.6973H197.123V55.0372H200.755V55.8548H196.237Z" fill="#A7A8AA"/>
<path d="M207.986 52.4553H209.896C209.956 52.4553 210.028 52.4553 210.11 52.4445C210.193 52.4391 210.27 52.4284 210.341 52.4123C210.567 52.3585 210.754 52.267 210.897 52.1272C211.04 51.9873 211.145 51.8313 211.211 51.6431C211.277 51.4548 211.31 51.2665 211.31 51.0729C211.31 50.8793 211.277 50.691 211.211 50.5027C211.145 50.3145 211.04 50.1531 210.897 50.0133C210.754 49.8734 210.567 49.782 210.341 49.7335C210.27 49.712 210.193 49.7013 210.11 49.6959C210.028 49.6959 209.956 49.6905 209.896 49.6905H207.986V52.4553ZM207.106 55.8548V48.8729H209.929C210 48.8729 210.083 48.8729 210.176 48.8783C210.27 48.8783 210.364 48.8944 210.452 48.9106C210.837 48.9697 211.161 49.0988 211.426 49.2979C211.69 49.4969 211.888 49.7497 212.02 50.0563C212.152 50.3629 212.218 50.7018 212.218 51.0729C212.218 51.444 212.152 51.7775 212.02 52.0841C211.888 52.3907 211.69 52.6435 211.426 52.8426C211.161 53.047 210.842 53.1761 210.457 53.2352C210.369 53.246 210.275 53.2567 210.182 53.2621C210.088 53.2675 210.006 53.2729 209.934 53.2729H207.997V55.8494H207.117L207.106 55.8548Z" fill="#A7A8AA"/>
<path d="M218.646 55.8548L217.237 53.0147L218.112 52.7511L219.659 55.8548H218.646ZM215.278 52.4553H217.188C217.248 52.4553 217.32 52.4553 217.402 52.4445C217.485 52.4391 217.562 52.4284 217.633 52.4123C217.859 52.3585 218.046 52.267 218.189 52.1272C218.332 51.9873 218.437 51.8313 218.503 51.6431C218.569 51.4548 218.602 51.2665 218.602 51.0729C218.602 50.8793 218.569 50.691 218.503 50.5027C218.437 50.3145 218.332 50.1531 218.189 50.0133C218.046 49.8734 217.859 49.782 217.633 49.7335C217.562 49.712 217.485 49.7013 217.402 49.6959C217.32 49.6959 217.248 49.6905 217.188 49.6905H215.278V52.4553ZM214.397 55.8548V48.8729H217.221C217.292 48.8729 217.375 48.8729 217.468 48.8783C217.562 48.8783 217.655 48.8944 217.743 48.9106C218.129 48.9697 218.453 49.0988 218.717 49.2979C218.982 49.4969 219.18 49.7497 219.312 50.0563C219.444 50.3629 219.51 50.7018 219.51 51.0729C219.51 51.6108 219.367 52.0788 219.081 52.4768C218.795 52.8748 218.371 53.1223 217.815 53.2191L217.479 53.2729H215.283V55.8494H214.403L214.397 55.8548Z" fill="#A7A8AA"/>
<path d="M224.656 55.177C225.189 55.177 225.63 55.0641 225.987 54.8274C226.345 54.5907 226.609 54.2572 226.785 53.8377C226.961 53.4127 227.05 52.9233 227.05 52.3692C227.05 51.8152 226.961 51.3203 226.785 50.9008C226.609 50.4812 226.345 50.1531 225.987 49.9164C225.63 49.6798 225.189 49.5614 224.656 49.556C224.122 49.556 223.681 49.669 223.329 49.9057C222.977 50.1423 222.713 50.4705 222.531 50.8954C222.355 51.3203 222.262 51.8098 222.256 52.3692C222.256 52.9233 222.339 53.4127 222.52 53.8323C222.696 54.2518 222.966 54.58 223.324 54.8166C223.676 55.0533 224.122 55.177 224.656 55.177ZM224.656 56C223.946 56 223.34 55.844 222.845 55.5374C222.35 55.2308 221.97 54.8059 221.711 54.2572C221.453 53.7086 221.321 53.0792 221.321 52.3638C221.321 51.6484 221.453 51.0137 221.711 50.4705C221.97 49.9218 222.35 49.4969 222.845 49.1903C223.34 48.8837 223.946 48.7277 224.656 48.7277C225.365 48.7277 225.976 48.8837 226.472 49.1903C226.967 49.4969 227.347 49.9218 227.605 50.4705C227.864 51.0191 227.991 51.6484 227.991 52.3638C227.991 53.0792 227.858 53.714 227.605 54.2572C227.347 54.8005 226.972 55.2308 226.472 55.5374C225.976 55.844 225.371 56 224.656 56Z" fill="#A7A8AA"/>
</svg>
