<svg xmlns="http://www.w3.org/2000/svg" version="1.1" id="Слой_1" x="0" y="0" viewBox="0 0 711.5 141.7" style="enable-background:new 0 0 711.5 141.7" xml:space="preserve"><style>.st0{fill-rule:evenodd;clip-rule:evenodd;fill:#1691dd}</style><path class="st0" d="M526.5 49.1c0 13.6-6.9 20.6-20.6 21h-2l26.3 23.8h-28.9l-23-21.8c-4.5-4.3-7.7-6.9-7.7-9.4l.2-11h35c2.6 0 3.9-.8 3.9-2.6s-1.2-2.9-3.9-2.9h-35.2V37l-.2-9.2h34.4c14.3.1 21.7 7.2 21.7 21.3zm103.9 44.8c-6.3 0-9.6-3.1-9.6-9.2V37c0-6.1 3.1-9.2 9.6-9.2h48.3v18.4H640v5.5h38.7V70H640v5.5h38.7v18.4h-48.3zM598 46.2v38.5l-.2 9h-19.2V46.2h-16.5V27.8H614.1v18.4H598zm-42.6 38.5v9H536V28h19.4v56.7zM402 70V51.6h38.7c2.6 0 3.9-.8 3.9-2.6s-1.2-2.9-3.9-2.9H402V27.8h45.6c8.1 0 13.4 2.9 15.5 8.4 2.4 5.7 2.6 11 .6 15.9s-6.1 7.9-12.2 8.8c6.1.8 10.2 3.9 12.2 8.8 2 5.1 1.8 10.4-.6 15.9-2 5.5-7.3 8.4-15.3 8.4H402V75.6h38.7c2.6 0 3.9-.8 3.9-2.6 0-2-1.2-2.9-3.9-2.9H402zm-59.1-23.6h-22.4c-1.8 0-2.9.8-3.1 2.4v23.6c0 1.8 1 2.6 3.1 2.6h22.4c2 0 3.1-.8 3.1-2.6V49.3c0-1.9-1-2.9-3.1-2.9zm22.2 26.1c0 14.3-7.1 21.2-21.6 21.2h-23.6c-14.5 0-21.6-6.9-21.6-21.2V49.3c0-14.3 7.1-21.4 21.6-21.4h23.6c14.5 0 21.6 7.1 21.6 21.4v23.2zm-70.2-23.4c0 13.6-6.9 20.6-20.6 21h-2l8.4 7.5 16.5 16.3h-27.3l-23.2-21.8c-4.7-4.1-7.7-6.9-7.7-9.4v-11h35.2c2.6 0 3.9-.8 3.9-2.6s-1.2-2.9-3.9-2.9H239V27.8h34.2c14.3.1 21.7 7.2 21.7 21.3zm-96.4 44.8h-19.2V51.7h35.2c2.4 0 3.9-.8 3.9-2.6s-1.4-2.9-3.9-2.9h-35.2V27.8h34.2c14.5 0 21.6 7.1 21.6 21.2s-7.1 21-21.6 21h-15.1v23.9zM692.7 13.7h2.9c1.2 0 2.2-.2 2.6-.6.6-.4.8-1 .8-1.6 0-.4-.2-.8-.4-1.2-.2-.2-.6-.6-1-.6-.4-.2-1.2-.4-2.2-.4h-2.6v4.4zm-2.5 8.2h2.4v-6.1h1.2c.8 0 1.6 0 2 .4.6.4 1.4 1.6 2.4 3.5l1.2 2.2h2.9l-1.8-2.9c-.8-1.4-1.4-2.4-2-2.9-.4-.4-.8-.6-1.2-.8 1.2-.2 2.2-.6 3.1-1.4.6-.6 1-1.6 1-2.6 0-.8-.2-1.4-.6-2-.4-.8-1-1.2-1.8-1.4-.8-.4-2-.4-3.7-.4h-5.1v14.4zm6-18.8c-1.8 0-3.7.4-5.5 1.4-1.8 1-3.3 2.4-4.3 4.3-.8 1.6-1.4 3.7-1.4 5.5 0 2 .4 3.9 1.4 5.7 1 1.6 2.4 3.1 4.3 4.1 1.8 1 3.7 1.4 5.5 1.4 2 0 3.9-.4 5.7-1.4 1.6-1 3.1-2.4 4.1-4.1 1-1.8 1.4-3.7 1.4-5.7 0-1.8-.4-3.9-1.4-5.5-1-1.8-2.4-3.3-4.3-4.3s-3.7-1.4-5.5-1.4zm0-2.2c2.2 0 4.5.6 6.7 1.8 2 1 3.9 2.9 4.9 4.9 1.2 2.2 1.8 4.5 1.8 6.7 0 2.4-.6 4.7-1.6 6.7-1.2 2.2-2.9 3.9-5.1 5.1-2 1-4.3 1.6-6.7 1.6-2.2 0-4.5-.6-6.7-1.6-2-1.2-3.7-2.9-4.9-5.1-1.2-2-1.8-4.3-1.8-6.7 0-2.2.6-4.5 1.8-6.7 1.2-2 2.9-3.9 5.1-4.9 2-1.2 4.2-1.8 6.5-1.8zM52.7 31.7C43.5 47.8 50 68 67.1 76.3c16.9 8.4 38.1 2 47.1-14.3 9-16.1 2.6-36.3-14.5-44.6-16.9-8.3-38.1-2-47 14.3zM52.2 104.9l31.6 15.5c-9.2 16.7-30.8 23.4-48.3 14.9s-24.2-29.1-15.1-45.8l31.8 15.4z"/><path class="st0" d="m37.2 59.6-16.7 30C2.7 80.8-4.2 60.3 5 43.8S36 21 53.7 29.7L37.2 59.6zM99.7 90.2l-15.9 30.4c17.9 8.4 39.7 1.4 48.3-15.3 8.8-16.7 1.2-37.1-16.7-45.4L99.7 90.2zM665.6 140.7l-.4-2.6c.6.2 1.2.2 1.6.2.6 0 1 0 1.4-.2.4-.2.8-.6 1-1 .2-.2.4-.8.8-2 0-.2.2-.4.2-.6l-6.3-16.5h3.1l3.5 9.6c.4 1 .8 2.4 1.2 3.7.4-1.2.6-2.4 1.2-3.7l3.5-9.6h2.9l-6.3 16.7c-.6 1.8-1.2 3.1-1.6 3.7-.4 1-1 1.6-1.6 2-.6.4-1.4.8-2.4.8-.6-.1-1.2-.3-1.8-.5zm-19.4-6.3v-16.5h2.4v2.4c.6-1.2 1.2-2 1.8-2.2.4-.4 1-.6 1.6-.6 1 0 2 .2 3.1.8l-1 2.6c-.6-.4-1.4-.6-2-.6-.6 0-1.2.2-1.6.6-.6.2-.8.8-1 1.4-.4 1-.6 2-.6 3.3v8.8h-2.7zm-11.6-2.6.4 2.4c-.8.2-1.4.4-2 .4-1 0-1.8-.2-2.4-.6-.6-.2-1-.6-1.2-1.2-.2-.4-.4-1.6-.4-3.3v-9.6h-2v-2h2v-4.1l2.9-1.8v5.9h2.9v2h-2.9v9.8c0 .8 0 1.2.2 1.4 0 .2.2.4.4.6.2.2.6.2 1 .2.1.1.5.1 1.1-.1zm-31.9-2.5 2.9-.4c0 1.2.4 2 1.2 2.6.6.6 1.6.8 2.9.8 1.4 0 2.2-.2 3.1-.8.6-.4.8-1 .8-1.8 0-.6-.2-1-.8-1.4-.4-.2-1.4-.6-2.9-1-2-.4-3.5-.8-4.3-1.2-.8-.4-1.4-1-1.8-1.6-.4-.6-.6-1.4-.6-2.2 0-.8.2-1.4.6-2 .2-.6.8-1.2 1.2-1.6.6-.2 1-.4 1.8-.8.8-.2 1.6-.2 2.4-.2 1.2 0 2.4.2 3.5.6 1 .2 1.6.8 2 1.4.6.6.8 1.4 1 2.6l-2.6.2c-.2-.8-.6-1.4-1.2-1.8-.4-.6-1.4-.8-2.4-.8-1.2 0-2.2.2-2.6.6-.6.4-1 1-1 1.4s.2.8.4 1c.2.4.6.6 1 .8.4 0 1.2.4 2.6.6 1.8.6 3.3 1 4.1 1.4.8.2 1.4.8 1.8 1.4.4.6.6 1.4.6 2.4 0 .8-.2 1.8-.8 2.6-.4.8-1.2 1.4-2.2 1.8-1 .4-2.2.6-3.5.6-2.2 0-3.9-.4-5.1-1.2-1.1-.9-1.9-2.2-2.1-4zm-14.9-11.4h2.9v16.5h-2.9v-16.5zm0-6.3h2.9v3.3h-2.9v-3.3zm-35.3 22.8v-16.5h2.4v2.2c.6-.8 1.2-1.4 2-2 .8-.4 1.8-.6 3.1-.6 1.2 0 2 .2 2.9.8.8.4 1.4 1 1.6 2 1.4-2 3.1-2.9 5.1-2.9 1.8 0 3.1.4 3.9 1.2.8 1 1.4 2.4 1.4 4.3v11.4H572V124c0-1.2-.2-2-.2-2.4-.2-.6-.6-1-1-1.2-.6-.4-1-.4-1.8-.4-1 0-2 .4-2.9 1-.6.8-1 2-1 3.9v9.6h-2.9v-10.8c0-1.2-.2-2.2-.6-2.9-.6-.6-1.2-.8-2.4-.8-.6 0-1.4.2-2 .6-.6.4-1.2 1-1.4 1.8-.4.8-.6 1.8-.6 3.5v8.6h-2.7zm-24.4-10h9.2c-.2-1.2-.4-2.4-1-3.1-1-1-2-1.6-3.5-1.6-1.2 0-2.4.4-3.3 1.2-.8 1.1-1.4 2.1-1.4 3.5zm9.2 4.7 2.9.2c-.4 1.8-1.2 3.1-2.4 4.1-1.2.8-2.9 1.2-4.9 1.2-2.2 0-4.3-.6-5.7-2.2-1.4-1.4-2-3.5-2-6.1 0-2.9.6-4.9 2-6.5 1.4-1.4 3.3-2.2 5.7-2.2 2.2 0 3.9.6 5.3 2.2 1.4 1.4 2.2 3.7 2.2 6.3 0 .2 0 .4-.2.8H528c.2 1.8.6 3.1 1.6 4.1.8 1 2 1.4 3.5 1.4 1 0 1.8-.2 2.4-.8.7-.5 1.4-1.5 1.8-2.5zm-37.9 5.3v-22.8h2.9v8.1c1.2-1.6 2.9-2.2 4.9-2.2 1.2 0 2.2.2 3.3.6.8.6 1.4 1.2 1.8 2s.6 2 .6 3.7v10.6H510v-10.6c0-1.4-.2-2.4-.8-3.1-.6-.6-1.4-.8-2.6-.8-.8 0-1.6.2-2.2.6-.8.4-1.2 1-1.6 1.6-.2.8-.4 1.8-.4 3.1v9.2h-3zm-14.1-6.1 2.9.4c-.4 1.8-1 3.3-2.2 4.5-1.2 1-2.9 1.4-4.7 1.4-2.2 0-4.1-.6-5.5-2-1.2-1.6-2-3.7-2-6.5 0-1.6.4-3.3 1-4.7.6-1.2 1.4-2.2 2.6-2.9 1.2-.8 2.4-1 3.9-1 1.8 0 3.3.4 4.5 1.2 1 1 1.8 2.2 2.2 3.9l-2.9.4c-.2-1-.6-1.8-1.2-2.4-.8-.6-1.6-.8-2.4-.8-1.4 0-2.6.6-3.5 1.4-.8 1-1.4 2.6-1.4 4.9 0 2.2.6 3.9 1.4 4.9.8 1 1.8 1.4 3.3 1.4 1 0 2-.2 2.9-1 .5-.7.9-1.7 1.1-3.1zm-44.4-16.7h2.9v22.8h-2.9v-22.8zM425 126.1c-1 .4-2.4.8-4.5 1-1.2.2-2 .4-2.4.6-.6.2-1 .4-1.2.8-.2.4-.4.8-.4 1.4 0 .8.4 1.4.8 1.8.6.4 1.4.8 2.6.8 1 0 2-.2 2.9-.8.8-.4 1.4-1 1.8-1.8.2-.6.4-1.6.4-2.9v-.9zm.2 6.3c-1 .8-2 1.4-2.9 1.8-1 .4-2 .4-3.3.4-1.8 0-3.1-.4-4.1-1.2s-1.4-2-1.4-3.5c0-.8.2-1.4.4-2.2.4-.6 1-1.2 1.4-1.4.6-.4 1.4-.8 2-1 .6-.2 1.4-.2 2.6-.4 2.2-.2 3.9-.6 4.9-1v-.6c0-1.2-.2-2-.8-2.4-.6-.6-1.6-1-3.1-1s-2.4.2-3.1.8c-.6.4-1 1.2-1.4 2.4l-2.6-.4c.2-1.2.6-2.2 1.2-2.9.6-.8 1.4-1.2 2.4-1.6 1-.4 2.4-.6 3.9-.6 1.2 0 2.4.2 3.3.4 1 .4 1.6.8 2 1.2.4.6.6 1.2.8 2 .2.4.2 1.2.2 2.4v3.9c0 2.4 0 4.3.2 4.9 0 .6.4 1.4.6 2h-2.9c.1-.6-.1-1.4-.3-2zm-37.3 2v-16.5h2.4v2.2c1.2-1.8 3.1-2.6 5.3-2.6 1 0 2 .2 2.9.4.8.4 1.4.8 1.8 1.4.4.6.6 1.4.8 2 .2.6.2 1.4.2 2.9v10.2h-2.9v-10.2c0-1 0-1.8-.2-2.4-.4-.6-.6-1-1.2-1.4-.6-.4-1.2-.4-2-.4-1.2 0-2.2.4-3.1 1-.8.8-1.2 2.2-1.2 4.3v9.2h-2.8zm-24.6-8.3c0 2 .4 3.7 1.2 4.7 1 1.2 2.2 1.6 3.7 1.6 1.2 0 2.4-.4 3.5-1.6.8-1 1.2-2.6 1.2-4.7s-.4-3.7-1.2-4.7c-1-1-2.2-1.6-3.5-1.6-1.4 0-2.6.6-3.7 1.6-.8 1-1.2 2.6-1.2 4.7zm-2.9 0c0-3.1.8-5.3 2.4-6.7 1.4-1.2 3.3-1.8 5.3-1.8 2.2 0 4.1.6 5.5 2.2 1.4 1.4 2 3.5 2 6.1 0 2-.2 3.9-.8 5.1-.6 1.2-1.6 2-2.9 2.6-1.2.8-2.4 1-3.9 1-2.4 0-4.3-.6-5.7-2-1.2-1.7-1.9-3.7-1.9-6.5zm-14.8-8.2h2.6v16.5h-2.6v-16.5zm0-6.3h2.6v3.3h-2.6v-3.3zm-25.9 17.7 2.6-.4c.2 1.2.6 2 1.4 2.6.6.6 1.6.8 2.9.8 1.2 0 2.2-.2 2.9-.8.6-.4 1-1 1-1.8 0-.6-.4-1-.8-1.4-.4-.2-1.4-.6-2.9-1-2-.4-3.5-.8-4.3-1.2-.8-.4-1.4-1-1.8-1.6s-.6-1.4-.6-2.2c0-.8.2-1.4.4-2 .4-.6.8-1.2 1.4-1.6.4-.2 1-.4 1.8-.8.8-.2 1.4-.2 2.4-.2 1.2 0 2.4.2 3.3.6 1 .2 1.8.8 2.2 1.4.4.6.8 1.4 1 2.6l-2.9.2c0-.8-.4-1.4-1-1.8-.6-.6-1.4-.8-2.4-.8-1.4 0-2.2.2-2.9.6s-.8 1-.8 1.4.2.8.4 1c.2.4.6.6 1 .8.2 0 1 .4 2.4.6 2 .6 3.5 1 4.3 1.4.6.2 1.2.8 1.8 1.4.4.6.6 1.4.6 2.4 0 .8-.2 1.8-.8 2.6-.6.8-1.4 1.4-2.4 1.8-1 .4-2 .6-3.5.6-2 0-3.7-.4-4.9-1.2-.8-.9-1.6-2.2-1.8-4zm-24.8 0 2.9-.4c0 1.2.4 2 1.2 2.6.6.6 1.6.8 3.1.8 1.2 0 2.2-.2 2.9-.8.6-.4.8-1 .8-1.8 0-.6-.2-1-.8-1.4-.4-.2-1.2-.6-2.9-1-2-.4-3.5-.8-4.3-1.2-.8-.4-1.4-1-1.8-1.6s-.6-1.4-.6-2.2c0-.8.2-1.4.6-2 .2-.6.8-1.2 1.4-1.6.4-.2 1-.4 1.6-.8.8-.2 1.6-.2 2.4-.2 1.4 0 2.4.2 3.5.6 1 .2 1.6.8 2.2 1.4.4.6.6 1.4.8 2.6l-2.6.2c-.2-.8-.6-1.4-1-1.8-.6-.6-1.6-.8-2.6-.8-1.2 0-2.2.2-2.6.6-.6.4-.8 1-.8 1.4s0 .8.2 1c.2.4.6.6 1.2.8.2 0 1 .4 2.4.6 1.8.6 3.3 1 4.1 1.4.8.2 1.4.8 1.8 1.4.4.6.6 1.4.6 2.4 0 .8-.2 1.8-.8 2.6-.4.8-1.2 1.4-2.2 1.8s-2.2.6-3.5.6c-2.2 0-3.9-.4-4.9-1.2-1.3-.9-1.9-2.2-2.3-4zm-23.3-4.9h9.2c-.2-1.2-.6-2.4-1-3.1-1-1-2-1.6-3.5-1.6s-2.4.4-3.3 1.2c-1 1.1-1.4 2.1-1.4 3.5zm9.2 4.7 2.9.2c-.4 1.8-1.4 3.1-2.6 4.1-1.2.8-2.6 1.2-4.7 1.2-2.4 0-4.3-.6-5.7-2.2-1.4-1.4-2-3.5-2-6.1 0-2.9.6-4.9 2-6.5 1.4-1.4 3.3-2.2 5.7-2.2 2 0 3.9.6 5.3 2.2 1.4 1.4 2 3.7 2 6.3v.8h-12.2c0 1.8.6 3.1 1.4 4.1 1 1 2.2 1.4 3.5 1.4 1 0 2-.2 2.6-.8.8-.5 1.4-1.5 1.8-2.5zm-28.3 5.3v-14.5H250v-2h2.4v-1.8c0-1 0-2 .2-2.4.2-.8.8-1.4 1.4-1.8.6-.4 1.6-.6 2.9-.6.8 0 1.6 0 2.6.2l-.4 2.4c-.6 0-1.2-.2-1.6-.2-.8 0-1.4.2-1.8.6-.4.4-.6 1-.6 2v1.6h3.3v2h-3.3v14.5h-2.6zm-25.5-8.3c0 2 .4 3.7 1.4 4.7.8 1.2 2 1.6 3.5 1.6s2.4-.4 3.5-1.6c1-1 1.4-2.6 1.4-4.7s-.4-3.7-1.4-4.7c-1-1-2-1.6-3.5-1.6s-2.6.6-3.5 1.6c-1 1-1.4 2.6-1.4 4.7zm-2.8 0c0-3.1.8-5.3 2.4-6.7 1.4-1.2 3.3-1.8 5.3-1.8 2.2 0 4.1.6 5.5 2.2 1.4 1.4 2.2 3.5 2.2 6.1 0 2-.4 3.9-1 5.1-.6 1.2-1.4 2-2.6 2.6-1.2.8-2.6 1-4.1 1-2.2 0-4.3-.6-5.7-2-1.4-1.7-2-3.7-2-6.5zm-18.4 8.3v-16.5h2.4v2.4c.6-1.2 1.2-2 1.8-2.2.4-.4 1-.6 1.6-.6 1 0 2 .2 3.1.8l-1 2.6c-.8-.4-1.4-.6-2-.6-.6 0-1.2.2-1.6.6-.6.2-.8.8-1 1.4-.4 1-.6 2-.6 3.3v8.8h-2.7zm-24-8.1c0 2 .4 3.7 1.2 4.7.8 1 1.8 1.4 3.1 1.4 1.4 0 2.4-.4 3.3-1.6.8-1 1.4-2.6 1.4-4.9 0-2-.4-3.7-1.4-4.7-.8-1-1.8-1.4-3.1-1.4s-2.2.4-3.1 1.6c-1 1-1.4 2.6-1.4 4.9zm-2.6 14.4v-22.8h2.6v2c.6-.8 1.2-1.4 2-1.8.8-.4 1.6-.6 2.6-.6 1.4 0 2.6.4 3.9 1 1 .8 1.8 1.8 2.4 3.1.4 1.4.8 2.9.8 4.3 0 1.8-.4 3.3-1 4.7-.6 1.4-1.4 2.4-2.6 3.1-1 .8-2.2 1-3.7 1-.8 0-1.6-.2-2.4-.4-.8-.4-1.4-1-1.8-1.6v8.1h-2.8zM375.1 59.8c-2.6 4.5-.8 10 3.9 12.2 4.7 2.4 10.6.6 13-3.9 2.4-4.5.8-10-3.9-12.2-4.6-2.4-10.5-.5-13 3.9z"/></svg>